<?xml version="1.0" encoding="UTF-8"?>
<svg version="1.1" xmlns="http://www.w3.org/2000/svg" width="960" height="1077">
<path d="M0 0 C1.71611486 2.57417229 2.94556415 4.92452226 4.21484375 7.7265625 C9.93929571 20.16468069 16.01996656 31.85952886 24 43 C24.43248047 43.60602051 24.86496094 44.21204102 25.31054688 44.83642578 C52.94329929 82.97170177 95.24031719 104.48090507 140.97265625 112.2265625 C152.92856738 114.13105126 164.8834962 115.76290242 177 116 C178.2988916 116.0306958 178.2988916 116.0306958 179.62402344 116.06201172 C238.03951126 117.26532701 299.31039057 101.88625429 345 64 C345.59329102 63.50822266 346.18658203 63.01644531 346.79785156 62.50976562 C368.16322135 44.6885205 382.51509783 24.96980434 395 0 C420.08 0 445.16 0 471 0 C467.64631056 3.35368944 464.14821402 5.40212309 460.08203125 7.79296875 C451.80089374 13.72306088 447.17255947 20.55146316 442.625 29.5625 C431.96755895 49.9057196 418.8687746 67.43267333 403 84 C402.29101562 84.75023437 401.58203125 85.50046875 400.8515625 86.2734375 C395.62537957 91.6702713 389.8822212 96.33935119 384 101 C383.04609375 101.78246094 382.0921875 102.56492187 381.109375 103.37109375 C355.96695198 123.51726604 325.23283775 137.48357716 294 145 C317.73529227 144.64622193 341.38450162 140.05323898 364 133 C364.79390137 132.76120117 365.58780273 132.52240234 366.40576172 132.27636719 C396.37408765 123.15691367 424.36516809 107.4394626 448 87 C448.94488281 86.1853125 449.88976562 85.370625 450.86328125 84.53125 C453.2830978 82.39368266 455.65174887 80.21578568 458 78 C458.80566406 77.2471875 459.61132812 76.494375 460.44140625 75.71875 C481.77511329 55.15292287 496.89722956 28.35969654 505 0 C530.41 0 555.82 0 582 0 C582 0.66 582 1.32 582 2 C580.25714852 3.41644115 578.45267785 4.75734466 576.625 6.0625 C571.55054373 9.74923858 566.85460335 13.68328725 562.25390625 17.95703125 C560 20 560 20 557.56640625 21.8359375 C554.37445066 24.52747996 551.93215746 27.5282387 549.375 30.8125 C548.65957031 31.69905273 548.65957031 31.69905273 547.9296875 32.60351562 C542.50007094 39.5187356 540.48978625 46.64626634 538.75 55.125 C534.98156556 72.4147805 529.50783326 88.47722522 521 104 C520.35537337 105.21349101 519.71084108 106.42703213 519.06640625 107.640625 C512.80272749 119.21419507 504.92496879 129.13891299 496.01953125 138.79296875 C494.26095093 140.71482152 492.59180225 142.67647489 490.9375 144.6875 C487.64044566 148.55053369 483.87919631 151.73749644 480 155 C479.19433594 155.71671875 478.38867188 156.4334375 477.55859375 157.171875 C446.72153112 184.01722682 406.6228291 202.51350437 367 212 C429.99514426 210.44839546 494.63828463 189.06137024 539.15234375 143.03515625 C551.01665709 129.96685339 560.86748121 115.63432216 569 100 C569.52207031 98.99694824 569.52207031 98.99694824 570.0546875 97.97363281 C577.5902309 83.26374217 582.60906501 67.89528367 586.52099609 51.86450195 C590.64040003 35.03241489 595.733959 18.78800019 608 6 C608.69923584 4.97865967 609.39847168 3.95731934 610.11889648 2.9050293 C613.95051472 -0.88012063 618.13882159 -0.65976378 623.30815792 -0.6958971 C625.57853826 -0.67923839 627.84725154 -0.63305276 630.1171875 -0.5859375 C631.70043323 -0.57473719 633.28369986 -0.56620095 634.86697388 -0.56021118 C639.02020379 -0.53737776 643.17216079 -0.47850448 647.32489014 -0.4119873 C651.56798078 -0.35044467 655.81127852 -0.32317078 660.0546875 -0.29296875 C668.37037374 -0.22875359 676.68502822 -0.12644346 685 0 C682.21946249 3.37612249 679.65470998 6.48549189 676.25 9.25 C661.23420411 22.14091912 654.70657997 35.43504488 652.625 54.875 C645.71371247 112.42845404 614.22337154 166.78841715 568.82421875 202.796875 C567.89222656 203.52390625 566.96023438 204.2509375 566 205 C565.01644531 205.78890625 564.03289063 206.5778125 563.01953125 207.390625 C529.83241115 233.77950244 490.12521662 251.4182362 449 261 C524.71752844 256.77117174 599.25613136 221.23712559 651 166 C654.16272373 162.4456077 657.10640015 158.77536232 660 155 C660.94114436 153.81099057 661.88256887 152.62220286 662.82421875 151.43359375 C670.58224077 141.50809201 677.00091517 131.06555877 683 120 C683.37640625 119.31437988 683.7528125 118.62875977 684.140625 117.92236328 C694.87604992 98.19699241 701.01210743 76.45549347 704.9375 54.4375 C707.95073975 37.84493739 713.55032989 21.66102753 722 7 C722.32285728 6.11100761 722.32285728 6.11100761 722.65223694 5.20405579 C723.82949897 2.73784642 724.74021833 1.57696709 727 0 C732.69669432 -1.02433726 738.34467849 -0.81349644 744.11328125 -0.68359375 C745.81005307 -0.67053154 747.50685136 -0.6605703 749.20365906 -0.65357971 C753.6611979 -0.62690233 758.11712998 -0.55818495 762.57403564 -0.48065186 C767.12530786 -0.40893435 771.67684075 -0.37705018 776.22851562 -0.34179688 C785.1530482 -0.26681189 794.07639029 -0.14740337 803 0 C803 0.66 803 1.32 803 2 C800.90513344 3.59680751 798.80355287 5.08797633 796.625 6.5625 C784.64483036 14.92815925 772.93828203 24.24969587 769 39 C768.34626494 43.33835707 767.99223204 47.69184164 767.625 52.0625 C763.54265733 93.87253819 748.41597194 134.70619709 724 169 C723.37867188 169.88300781 722.75734375 170.76601563 722.1171875 171.67578125 C714.18892123 182.76572456 705.81216324 193.37530817 696.4921875 203.32421875 C694.39802458 205.57265386 692.37259338 207.85390589 690.375 210.1875 C684.81280963 216.58601017 678.76279588 222.50793332 672.3203125 228.015625 C670.55011966 229.5295273 668.79815218 231.06476703 667.0546875 232.609375 C625.28460504 269.41883226 575.13477837 293.65642983 523 312 C541.95101532 309.69248759 560.45738586 306.63565353 579 302 C580.04607422 301.73848145 581.09214844 301.47696289 582.16992188 301.20751953 C630.07410636 288.99210209 676.4703441 267.12751212 715 236 C716.04401358 235.16894755 717.0882668 234.33819603 718.1328125 233.5078125 C724.2882277 228.55261753 730.17059634 223.33198448 736 218 C737.01497377 217.08911758 738.03062626 216.178991 739.046875 215.26953125 C743.97443894 210.84055333 748.79295499 206.4132088 753.05078125 201.3203125 C754.62295263 199.44882994 756.22332024 197.62311097 757.85546875 195.8046875 C771.55949444 180.45090955 782.79796281 163.84708936 793 146 C793.4017041 145.31180176 793.8034082 144.62360352 794.21728516 143.91455078 C811.06878998 114.9000936 819.69726043 82.42198561 823.69921875 49.34375 C825.977887 30.78959016 832.64032733 15.539509 843 0 C845.7515767 -0.28628303 848.27720631 -0.37827044 851.02978516 -0.34057617 C851.85913071 -0.34101425 852.68847626 -0.34145233 853.54295349 -0.34190369 C856.29189368 -0.33980898 859.0402285 -0.31644613 861.7890625 -0.29296875 C863.69192166 -0.28737521 865.59478513 -0.28310397 867.49765015 -0.28010559 C872.51192095 -0.26863772 877.52593207 -0.2391539 882.5401001 -0.20599365 C887.65430182 -0.17533455 892.76854541 -0.16160916 897.8828125 -0.14648438 C907.92198925 -0.11428601 917.96097305 -0.06306628 928 0 C925.18410781 2.98720321 922.026273 4.7112753 918.4375 6.625 C906.637503 13.17393726 897.06593966 21.62298842 893 34.8125 C891.45455866 40.70291167 890.22774036 46.64660142 888.99291992 52.60888672 C882.16683466 85.48984555 871.55524493 116.74957798 857 147 C856.59168945 147.86431641 856.18337891 148.72863281 855.76269531 149.61914062 C846.1609801 169.92350482 834.37706456 188.97107427 821 207 C820.3510376 207.87640137 820.3510376 207.87640137 819.68896484 208.77050781 C813.46494157 217.12499776 806.864972 225.16548998 800 233 C799.37029297 233.71873291 798.74058594 234.43746582 798.09179688 235.17797852 C792.35062485 241.6458894 786.35778094 247.82844586 780.24414062 253.94116211 C778.6285932 255.55890192 777.02124966 257.18450636 775.4140625 258.81054688 C768.93214257 265.32750756 762.2150967 271.28882097 755 277 C753.69407059 278.08392451 752.39158355 279.17201993 751.09375 280.265625 C674.941959 343.78283333 574.4585232 373.25554036 410 376.6875 C387.70427659 374.58081747 365.82002444 371.03351749 344 366 C342.88592773 365.74379883 341.77185547 365.48759766 340.62402344 365.22363281 C293.7166542 354.22475865 247.5220103 335.14214992 207 309 C205.7320459 308.18499023 205.7320459 308.18499023 204.43847656 307.35351562 C187.92527638 296.67745476 171.77246848 285.42571831 156.91796875 272.515625 C154.09982667 270.08606208 151.22087633 267.75771097 148.3125 265.4375 C143.76642892 261.74381725 139.63970495 257.77580514 135.58203125 253.5546875 C133.49703612 251.4917725 131.3876246 249.58954257 129.1640625 247.68359375 C125.01888822 244.09055998 121.27698352 240.21876404 117.5625 236.1875 C116.91071777 235.48536377 116.25893555 234.78322754 115.58740234 234.05981445 C113.72005406 232.04431176 111.85898557 230.02321433 110 228 C109.12472656 227.05125 108.24945313 226.1025 107.34765625 225.125 C85.98770949 201.70038351 67.60647677 175.54313786 52 148 C51.49758789 147.12150391 50.99517578 146.24300781 50.47753906 145.33789062 C36.94081853 121.57597001 25.89499228 96.85131365 17 71 C16.64067383 69.96311035 16.28134766 68.9262207 15.91113281 67.85791016 C-1.00309339 18.55722778 -1.00309339 18.55722778 0 0 Z " fill="#F8C300" transform="translate(0,699)"/>
<path d="M0 0 C1.30705955 0.424438 2.61424775 0.84847998 3.92155457 1.27215576 C6.70132813 2.17381954 9.48028557 3.07793834 12.25860596 3.98406982 C16.65065944 5.41639038 21.0445966 6.84286559 25.43896484 8.26806641 C26.92584241 8.75033531 28.41271985 9.2326046 29.89959717 9.71487427 C30.63631401 9.95381535 31.37303085 10.19275642 32.13207245 10.43893814 C34.37115562 11.16534985 36.61006832 11.89228478 38.84893799 12.61935425 C51.81677259 16.82987823 64.79748893 20.99948787 77.78515625 25.1484375 C79.26890244 25.62268158 79.26890244 25.62268158 80.78262329 26.10650635 C86.71010804 28.00106301 92.63810967 29.89399605 98.56640625 31.78601074 C101.82950092 32.82748694 105.09249542 33.86927651 108.35546875 34.91113281 C121.78972626 39.20056926 135.2246 43.48807079 148.66015625 47.7734375 C148.66015625 48.4334375 148.66015625 49.0934375 148.66015625 49.7734375 C148.0932457 49.86176346 147.52633514 49.95008942 146.94224548 50.04109192 C78.5830713 60.71877838 10.85878115 74.03058115 -55.15124512 95.0760498 C-57.2992103 95.76048982 -59.44877017 96.43971108 -61.59863281 97.11816406 C-94.20386045 107.44400282 -126.08480365 119.90599664 -157.33984375 133.7734375 C-158.33242188 134.20994629 -159.325 134.64645508 -160.34765625 135.09619141 C-171.56455154 140.03723378 -182.53453064 145.2899241 -193.328125 151.09765625 C-196.90691235 153.02226768 -200.50995323 154.89016341 -204.1328125 156.73046875 C-234.85946977 172.37402058 -264.47387815 190.45273803 -292.33984375 210.7734375 C-293.0889502 211.31677734 -293.83805664 211.86011719 -294.60986328 212.41992188 C-309.93051539 223.5449162 -325.04889837 234.92970741 -339.41015625 247.27734375 C-342.11678108 249.58338811 -344.87160115 251.80792003 -347.65234375 254.0234375 C-353.11884509 258.46696783 -358.22744722 263.25646203 -363.33129883 268.10644531 C-366.75634162 271.36108579 -370.21619257 274.55254726 -373.76171875 277.67578125 C-380.84664747 284.02750617 -387.51902213 290.80348809 -394.23608398 297.53930664 C-396.52931123 299.8379096 -398.82785615 302.1310978 -401.12695312 304.42382812 C-402.60839375 305.90592937 -404.08952425 307.3883407 -405.5703125 308.87109375 C-406.24652145 309.54527847 -406.92273041 310.2194632 -407.61943054 310.91407776 C-411.50339621 314.81693968 -415.21156432 318.82292044 -418.80403137 322.99607849 C-421.0915828 325.64340716 -423.46553741 328.20360005 -425.83984375 330.7734375 C-446.16571934 352.86782974 -465.17853599 376.33572423 -483.34399414 400.22875977 C-486.72002555 404.66747664 -490.13341579 409.07385374 -493.57592773 413.46118164 C-500.03633954 421.70100099 -506.24681574 430.08722555 -512.33984375 438.6015625 C-516.24973388 444.06037065 -520.28107945 449.42467834 -524.33984375 454.7734375 C-524.99984375 454.4434375 -525.65984375 454.1134375 -526.33984375 453.7734375 C-516.75003455 398.91972886 -495.70141268 348.76353337 -464.33984375 302.7734375 C-463.79408691 301.97260742 -463.24833008 301.17177734 -462.68603516 300.34667969 C-455.94780147 290.51791515 -448.82681749 281.04219491 -441.33984375 271.7734375 C-440.5921875 270.84273438 -439.84453125 269.91203125 -439.07421875 268.953125 C-424.49837316 250.96925796 -408.86891817 234.12017125 -392.47851562 217.78173828 C-390.44151954 215.7501755 -388.41002424 213.71321914 -386.37890625 211.67578125 C-385.05631058 210.35384543 -383.73340526 209.03221933 -382.41015625 207.7109375 C-381.81727814 207.11603516 -381.22440002 206.52113281 -380.61355591 205.90820312 C-376.89906044 202.21407585 -373.05915425 198.71205887 -369.09342957 195.28890991 C-366.86770793 193.36541138 -364.6984331 191.38321621 -362.52734375 189.3984375 C-358.20723584 185.49980353 -353.75912994 181.79839892 -349.234375 178.140625 C-346.72665143 176.08977415 -344.25944942 173.99976187 -341.80371094 171.88720703 C-334.31165769 165.45656637 -326.5309741 159.45008731 -318.64501953 153.51220703 C-316.29665348 151.74085954 -313.95657206 149.95896862 -311.6171875 148.17578125 C-238.68851591 92.77874566 -156.76113727 46.62568487 -47.2008667 2.48419189 C-45.39988831 1.79636948 -43.60246185 1.099269 -41.80517578 0.40185547 C-38.65920847 -0.81316103 -35.50308459 -1.99488574 -32.33984375 -3.1640625 C-31.44515381 -3.51259277 -30.55046387 -3.86112305 -29.62866211 -4.22021484 C-28.79085205 -4.52008301 -27.95304199 -4.81995117 -27.08984375 -5.12890625 C-26.3834375 -5.39179443 -25.67703125 -5.65468262 -24.94921875 -5.92553711 C-16.72555502 -6.87424383 -7.66586226 -2.50926955 0 0 Z " fill="#009933" transform="translate(811.33984375,231.2265625)"/>
<path d="M0 0 C0.66 0.33 1.32 0.66 2 1 C0.70142237 5.72117018 -0.5975192 10.44224009 -1.89674187 15.1632328 C-2.37900654 16.91572757 -2.86121049 18.66823905 -3.34335518 20.42076683 C-6.27616693 31.08042477 -9.21590802 41.73811004 -12.17016602 52.3918457 C-13.27908135 56.39266534 -14.38765907 60.39357842 -15.49609375 64.39453125 C-15.77304895 65.39383478 -16.05000416 66.39313831 -16.33535194 67.42272377 C-19.63413944 79.33244129 -22.8861061 91.25243682 -26.04406738 103.20028687 C-27.43286435 108.45411425 -28.84458763 113.70167657 -30.26351547 118.94743919 C-31.37544302 123.06610976 -32.45550103 127.19145781 -33.51286793 131.32445049 C-34.32183325 134.44686375 -35.17818898 137.55628693 -36.02734375 140.66796875 C-36.29845474 141.77113937 -36.56956573 142.87431 -36.84889221 144.01091003 C-38.8611691 151.14294501 -38.8611691 151.14294501 -41.94261169 153.46195984 C-44.26563657 154.52424759 -46.54987788 155.28293464 -49 156 C-50.44119361 156.56010854 -51.87779456 157.13219168 -53.30932617 157.71655273 C-54.80308989 158.29094228 -56.29767101 158.8632096 -57.79296875 159.43359375 C-59.47662634 160.08165411 -61.16013271 160.73010743 -62.84350586 161.37890625 C-63.71490204 161.71422363 -64.58629822 162.04954102 -65.48410034 162.39501953 C-114.50972484 181.30019911 -162.75134423 203.1794488 -208 230 C-208.81114258 230.47711426 -209.62228516 230.95422852 -210.45800781 231.44580078 C-230.45590793 243.21920134 -249.98460996 255.69761546 -269 269 C-269.63341309 269.4429541 -270.26682617 269.8859082 -270.91943359 270.34228516 C-290.51981821 284.09796085 -309.78304047 298.54882949 -327.84375 314.27734375 C-330.65106101 316.71763614 -333.53060743 319.05376079 -336.4375 321.375 C-342.26235406 326.1001766 -347.68484056 331.2226473 -353.12890625 336.375 C-355.88756964 338.98274003 -358.70327405 341.51267225 -361.546875 344.02734375 C-367.83899802 349.67177461 -373.7946659 355.6445143 -379.76000977 361.62963867 C-381.69109547 363.56610549 -383.62749882 365.49713956 -385.56445312 367.42773438 C-391.07614205 372.93645698 -396.56038664 378.42193759 -401.60961914 384.36450195 C-403.7846145 386.92293811 -406.08630026 389.35541244 -408.375 391.8125 C-412.67195948 396.46385549 -416.74190142 401.25074841 -420.7109375 406.1875 C-422.69344722 408.62334812 -424.72408103 411.00673048 -426.78076172 413.37988281 C-434.68557712 422.53947639 -441.83184585 432.26051541 -449 442 C-449.55445801 442.74910645 -450.10891602 443.49821289 -450.68017578 444.27001953 C-476.03611264 478.57420304 -497.53895872 514.95844113 -516.625 553.0625 C-516.97337921 553.7579895 -517.32175842 554.453479 -517.68069458 555.17004395 C-518.67811076 557.16529063 -519.67192875 559.16227835 -520.6640625 561.16015625 C-521.23592285 562.31136963 -521.8077832 563.46258301 -522.39697266 564.64868164 C-524.03155804 568.06597582 -525.53237668 571.50849914 -527 575 C-527.66 574.67 -528.32 574.34 -529 574 C-517.90078538 508.75973309 -495.53344325 447.5476132 -461 391 C-460.23308838 389.73905518 -460.23308838 389.73905518 -459.45068359 388.45263672 C-448.33232264 370.26191347 -435.98671704 352.89875415 -423 336 C-422.5349707 335.39462402 -422.06994141 334.78924805 -421.59082031 334.16552734 C-415.4065405 326.14413991 -409.0052627 318.33289006 -402.40917969 310.64746094 C-400.97597461 308.9719121 -399.55350262 307.28773026 -398.1328125 305.6015625 C-391.25143937 297.46130355 -384.08661551 289.63116434 -376.76904297 281.88232422 C-375.03447798 280.03668579 -373.31380982 278.17916341 -371.59765625 276.31640625 C-365.23243141 269.41678754 -358.75112949 262.65005053 -352.125 256 C-351.43559326 255.30600098 -350.74618652 254.61200195 -350.03588867 253.89697266 C-346.06880235 249.94182532 -341.98664741 246.18652594 -337.74560547 242.52734375 C-335.73637912 240.76934095 -333.85409081 238.92030834 -332 237 C-328.8501997 233.80738688 -325.58780511 230.82838721 -322.1875 227.90625 C-319.64488601 225.69054352 -317.16889802 223.40901408 -314.6875 221.125 C-310.14475315 216.97754742 -305.45880038 213.06767305 -300.671875 209.20703125 C-298.1014095 207.08376662 -295.64080637 204.88188151 -293.1875 202.625 C-288.75449572 198.58479357 -284.11758475 194.89366964 -279.37915039 191.22485352 C-275.36578314 188.10658878 -271.47349857 184.88121919 -267.625 181.5625 C-262.34763876 177.03318096 -256.87737755 172.82674815 -251.2890625 168.68945312 C-246.1683004 164.89503643 -241.13740632 160.99860944 -236.125 157.0625 C-227.98295737 150.69023842 -219.65605481 144.60987968 -211.24121094 138.60449219 C-208.26903654 136.47670023 -205.31230321 134.32795625 -202.35473633 132.17993164 C-181.88225652 117.32937008 -160.98061686 103.11840887 -140 89 C-139.37901428 88.58200134 -138.75802856 88.16400269 -138.1182251 87.7333374 C-125.14252053 79.00219493 -112.12934451 70.34710072 -98.8671875 62.0546875 C-93.04915288 58.41507286 -87.27649254 54.70505161 -81.5 51 C-65.75705199 40.91532169 -49.96274676 30.93325687 -34.01782227 21.17016602 C-28.34278467 17.69132319 -22.69000336 14.1827843 -17.07421875 10.609375 C-15.96973389 9.90917236 -14.86524902 9.20896973 -13.72729492 8.48754883 C-11.60989968 7.14253273 -9.49661877 5.79101298 -7.38793945 4.43237305 C-5.97387817 3.53578979 -5.97387817 3.53578979 -4.53125 2.62109375 C-3.70173828 2.0892749 -2.87222656 1.55745605 -2.01757812 1.00952148 C-1.01887695 0.50980835 -1.01887695 0.50980835 0 0 Z " fill="#009933" transform="translate(810,40)"/>
<path d="M0 0 C-0.63717502 9.97904054 -2.05669491 19.78418582 -3.58203125 29.65625 C-3.70851233 30.47872726 -3.8349934 31.30120453 -3.96530724 32.14860535 C-4.63276403 36.48527479 -5.30555852 40.82107738 -5.98266602 45.15625 C-6.67929997 49.62395617 -7.35643621 54.09439881 -8.02946949 58.56571198 C-8.55303011 62.0195308 -9.09114156 65.47096859 -9.63324547 68.92192078 C-9.88951589 70.570079 -10.1402565 72.21910712 -10.38529396 73.86897278 C-10.72817407 76.16862062 -11.09160599 78.46412006 -11.46020508 80.75976562 C-11.55646179 81.43718811 -11.65271851 82.1146106 -11.75189209 82.81256104 C-12.46924539 87.0995527 -13.60448394 89.28752876 -17 92 C-18.85357803 93.18133931 -20.7493963 94.29773457 -22.671875 95.36328125 C-23.79787109 95.99427734 -24.92386719 96.62527344 -26.08398438 97.27539062 C-26.68041748 97.60643799 -27.27685059 97.93748535 -27.89135742 98.27856445 C-31.08983542 100.05783075 -34.27176006 101.86614026 -37.453125 103.67578125 C-38.09862305 104.04293243 -38.74412109 104.41008362 -39.40917969 104.7883606 C-68.26795154 121.25932198 -96.40767404 140.08155662 -123 160 C-124.38658015 161.0301345 -125.77330218 162.06007806 -127.16015625 163.08984375 C-131.12206079 166.03985333 -135.06336947 169.01639289 -139 172 C-139.55461914 172.41813965 -140.10923828 172.8362793 -140.68066406 173.26708984 C-158.3084841 186.56555153 -175.27740356 200.82978702 -191.54296875 215.76171875 C-193.72905069 217.75317336 -195.94582606 219.69672513 -198.1875 221.625 C-201.63161512 224.6131732 -204.82142881 227.80319173 -208.01953125 231.05078125 C-209.85012791 232.85249276 -211.73031479 234.52573898 -213.6875 236.1875 C-221.85284531 243.22325209 -229.4862902 251.03065693 -236.4609375 259.2421875 C-238.0694055 261.07927024 -239.75838868 262.78907787 -241.5 264.5 C-245.21204116 268.16287506 -248.60791175 272.04149094 -252 276 C-252.8837913 277.01981151 -253.76793245 278.03931988 -254.65234375 279.05859375 C-317.20568267 351.3380221 -366.89743396 437.782011 -388.04760742 547.3137207 C-388.38949097 549.19063599 -388.38949097 549.19063599 -388.73828125 551.10546875 C-389.03279175 552.77838989 -389.03279175 552.77838989 -389.33325195 554.48510742 C-389.55327881 555.31502197 -389.77330566 556.14493652 -390 557 C-390.66 557.33 -391.32 557.66 -392 558 C-393.34993278 462.46629575 -370.95924327 368.18408567 -251.015625 189.234375 C-249.12555342 187.13917937 -247.27787513 185.01381434 -245.4375 182.875 C-242.4288876 179.41474832 -239.22294011 176.20423357 -235.95703125 172.98828125 C-234.11269014 171.11448958 -232.39367934 169.18686529 -230.6875 167.1875 C-224.32042155 159.80285193 -217.30731415 153.00155729 -209.89453125 146.67578125 C-207.84198069 144.86022622 -205.92253994 142.95240464 -204 141 C-200.16445447 137.1200273 -196.14755921 133.54142986 -192 130 C-190.94635615 129.09405048 -189.89299323 128.18777417 -188.83984375 127.28125 C-185.83147938 124.69398879 -182.81674988 122.11427345 -179.79931641 119.53759766 C-178.6391774 118.54620614 -177.47992905 117.55377096 -176.32177734 116.56005859 C-168.60296576 109.93762952 -160.73727049 103.54253085 -152.69677734 97.31445312 C-151.09342013 96.07237036 -149.49385532 94.8253966 -147.89453125 93.578125 C-133.27482456 82.23812437 -118.34855987 71.33228531 -103 61 C-102.19836426 60.45875488 -101.39672852 59.91750977 -100.57080078 59.35986328 C-74.16008408 41.55008761 -47.03646402 24.99336204 -19.30810547 9.31494141 C-17.09273629 8.05283242 -14.89006759 6.77142117 -12.69140625 5.48046875 C-11.71433716 4.90993774 -11.71433716 4.90993774 -10.7175293 4.32788086 C-9.01507857 3.33194605 -7.31597853 2.33028949 -5.6171875 1.328125 C-3 -0 -3 -0 0 0 Z " fill="#009933" transform="translate(673,0)"/>
<path d="M0 0 C0.8772171 0.34675278 1.7544342 0.69350555 2.65823364 1.05076599 C5.54766662 2.19480681 8.43188924 3.35143973 11.31640625 4.5078125 C13.34388646 5.31253435 15.37180824 6.1161445 17.40014648 6.91870117 C20.58444231 8.17868305 23.76848207 9.43926794 26.95124817 10.70310974 C38.02422645 15.0984806 49.13003892 19.40793647 60.24075317 23.70684814 C63.37567633 24.91987889 66.5100634 26.13428441 69.64428711 27.34912109 C79.38408911 31.12357685 89.12633516 34.89144954 98.87890625 38.6328125 C98.87890625 39.2928125 98.87890625 39.9528125 98.87890625 40.6328125 C98.2742453 40.80661438 97.66958435 40.98041626 97.04660034 41.15948486 C51.28649542 54.31831926 51.28649542 54.31831926 5.87890625 68.6328125 C5.03511414 68.91042419 4.19132202 69.18803589 3.32196045 69.47406006 C-34.4244743 81.91672301 -71.8290453 95.38221227 -108.12109375 111.6328125 C-109.12092285 112.07898926 -110.12075195 112.52516602 -111.15087891 112.98486328 C-118.17400073 116.13110257 -125.15718693 119.35776634 -132.12109375 122.6328125 C-133.25659668 123.16632324 -134.39209961 123.69983398 -135.56201172 124.24951172 C-187.14333598 148.58297511 -236.23419627 178.07019499 -280.12109375 214.6328125 C-280.69553223 215.1081543 -281.2699707 215.58349609 -281.86181641 216.07324219 C-282.41788574 216.53375977 -282.97395508 216.99427734 -283.546875 217.46875 C-284.02552002 217.86497559 -284.50416504 218.26120117 -284.99731445 218.66943359 C-296.55093816 228.40257123 -307.46479853 238.78969989 -318.14306641 249.46948242 C-319.87905331 251.20326193 -321.62294485 252.92882788 -323.3671875 254.65429688 C-329.35352111 260.61137208 -334.99603214 266.63607849 -340.23364258 273.27172852 C-342.09557825 275.6008942 -344.04499896 277.8093256 -346.05859375 280.0078125 C-364.00242066 300.03566655 -378.7484096 323.26607186 -392.32641602 346.38623047 C-392.80780029 347.2010791 -393.28918457 348.01592773 -393.78515625 348.85546875 C-394.2126416 349.58515869 -394.64012695 350.31484863 -395.08056641 351.06665039 C-395.59562744 351.84190063 -395.59562744 351.84190063 -396.12109375 352.6328125 C-396.45109375 352.6328125 -396.78109375 352.6328125 -397.12109375 352.6328125 C-396.66014279 345.20593016 -395.20023007 338.4343358 -393.05859375 331.3203125 C-392.74623779 330.27415771 -392.43388184 329.22800293 -392.11206055 328.15014648 C-379.1154818 285.47476512 -356.57932471 247.74499663 -328.12109375 213.6328125 C-327.30125 212.63765625 -326.48140625 211.6425 -325.63671875 210.6171875 C-315.45837882 198.34162013 -304.42854226 186.86726364 -293.18359375 175.5703125 C-292.4982959 174.8803418 -291.81299805 174.19037109 -291.10693359 173.47949219 C-287.1909986 169.57590431 -283.16693017 165.85908316 -278.98071289 162.24731445 C-276.36560811 159.97690774 -273.84274686 157.61829638 -271.30859375 155.2578125 C-266.7155 151.01970549 -262.00839153 146.97681057 -257.13671875 143.05859375 C-254.92467159 141.27921385 -252.72902536 139.48650697 -250.54296875 137.67578125 C-241.09267278 129.87359774 -231.37028625 122.51647035 -221.44873047 115.32519531 C-219.28036347 113.74861465 -217.12304127 112.15823311 -214.96875 110.5625 C-166.37858194 74.76254779 -113.50338196 44.86703738 -60.00634766 17.13427734 C-57.05379532 15.59779089 -54.10817339 14.04868792 -51.1640625 12.49609375 C-45.4989216 9.5105245 -39.81461989 6.56381171 -34.12109375 3.6328125 C-33.28690918 3.1982373 -32.45272461 2.76366211 -31.59326172 2.31591797 C-29.30031529 1.12885547 -26.99534112 -0.02976526 -24.68359375 -1.1796875 C-24.0282666 -1.52354492 -23.37293945 -1.86740234 -22.69775391 -2.22167969 C-14.73901717 -6.08458376 -7.64953902 -3.10244683 0 0 Z " fill="#009933" transform="translate(683.12109375,406.3671875)"/>
<path d="M0 0 C1.44052734 0.73669922 1.44052734 0.73669922 2.91015625 1.48828125 C11.09457405 5.91314713 17.46828193 11.47755994 24 18 C24.7425 18.73089844 25.485 19.46179688 26.25 20.21484375 C41.6261243 36.34175537 48.42577273 58.86395402 48.1484375 80.7734375 C47.21239628 101.12001775 40.06357714 119.40897087 27 135 C26.37351562 135.81855469 25.74703125 136.63710938 25.1015625 137.48046875 C12.49644112 152.59255665 -8.56446802 162.93581847 -28 165 C-52.8971778 166.77468097 -74.96271968 161.85999016 -94.66015625 145.8359375 C-97.1854398 143.62680228 -99.6060402 141.35050508 -102 139 C-103.14082031 137.89591797 -103.14082031 137.89591797 -104.3046875 136.76953125 C-119.77622522 120.78941357 -127.11142944 98.74142044 -127.03125 76.7421875 C-126.39790604 52.04177315 -116.10446179 31.35379796 -99 14 C-98.34257812 13.3296875 -97.68515625 12.659375 -97.0078125 11.96875 C-72.06251642 -11.58474845 -29.86510313 -16.22806974 0 0 Z " fill="#274987" transform="translate(233,139)"/>
<path d="M0 0 C4.12049835 1.41062106 6.94876747 3.38004537 10.3125 6.125 C64.24033268 48.82690774 136.45515272 84.79906932 206.9140625 76.98217773 C231.23669645 73.95422768 254.82423303 64.95303439 275 51 C275.66 51.33 276.32 51.66 277 52 C276.48783936 53.06021362 276.48783936 53.06021362 275.96533203 54.1418457 C238.77837181 131.54927529 225.5205398 216.62261477 229 352 C229.06944824 353.22267578 229.13889648 354.44535156 229.21044922 355.70507812 C229.93953574 367.80828537 231.71418675 379.48848551 234.03564453 391.38574219 C238.58875505 415.00563119 242.33506532 439.90321915 242 464 C240.10810745 461.16216117 239.67645903 460.12253072 239.2097168 456.91967773 C239.08564453 456.09281967 238.96157227 455.26596161 238.83374023 454.41404724 C238.70684814 453.51299759 238.57995605 452.61194794 238.44921875 451.68359375 C238.3104834 450.73690323 238.17174805 449.79021271 238.02880859 448.81483459 C237.57389861 445.69013201 237.13079865 442.56386912 236.6875 439.4375 C236.37048567 437.25386455 236.05318091 435.07027125 235.7355957 432.88671875 C234.25067452 422.56687888 232.85973064 412.24967648 231.78125 401.87890625 C227.90460533 364.76168859 218.53861205 330.0926441 206 295 C205.62633301 293.948125 205.25266602 292.89625 204.86767578 291.8125 C188.30710972 245.64268826 164.87879407 202.17926123 137.75 161.4375 C137.33797333 160.81832703 136.92594666 160.19915405 136.50143433 159.56121826 C128.54097874 147.62301911 120.33520726 135.85898042 111.5625 124.5 C111.0173877 123.79133789 110.47227539 123.08267578 109.91064453 122.35253906 C108.27711216 120.23241248 106.639231 118.11572233 105 116 C104.51354004 115.37029297 104.02708008 114.74058594 103.52587891 114.09179688 C97.730219 106.59930878 91.76854619 99.28165961 85.61328125 92.08203125 C83.20918687 89.26364971 80.88232006 86.38828047 78.5625 83.5 C74.18315122 78.11426586 69.49955162 73.05183201 64.765625 67.98046875 C62.67089076 65.73401311 60.62670331 63.45526572 58.625 61.125 C50.07864495 51.27496367 41.02454918 41.86294043 31.70678711 32.74365234 C29.10567406 30.18299506 26.62410083 27.61233152 24.3125 24.78515625 C22.46435586 22.55926643 20.78652253 20.80798136 18.5625 19 C14.34126252 15.40503475 10.42190123 11.53950235 6.5 7.625 C5.86392822 6.99335938 5.22785645 6.36171875 4.57250977 5.7109375 C3.98139404 5.11796875 3.39027832 4.525 2.78125 3.9140625 C2.24564453 3.3773291 1.71003906 2.8405957 1.15820312 2.28759766 C0 1 0 1 0 0 Z " fill="#274987" transform="translate(26,282)"/>
</svg>
